<?xml version="1.0" encoding="UTF-8"?>
<svg width="39px" height="40px" viewBox="0 0 39 40" version="1.1" xmlns="http://www.w3.org/2000/svg" xmlns:xlink="http://www.w3.org/1999/xlink">
    <!-- Generator: Sketch 51.2 (57519) - http://www.bohemiancoding.com/sketch -->
    <title>icon-stats</title>
    <desc>Created with Sketch.</desc>
    <defs></defs>
    <g id="Page-1" stroke="none" stroke-width="1" fill="none" fill-rule="evenodd">
        <g id="FH-Landingpage" transform="translate(-912.000000, -1715.000000)" fill="#8994A9" fill-rule="nonzero">
            <g id="HOW-IT-WORK" transform="translate(29.000000, 1150.000000)">
                <g id="feature4" transform="translate(859.000000, 537.000000)">
                    <g id="Group-2" transform="translate(24.000000, 26.000000)">
                        <g id="icon-stats" transform="translate(0.000000, 2.000000)">
                            <path d="M39,19.2673931 C39,18.0944905 38.4300682,17.0635066 37.5624955,16.4129645 C38.4301568,15.7624223 39,14.7310816 39,13.5585359 C39,11.5877313 37.4125227,9.9905001 35.4545455,9.9905001 L34.7454545,9.9905001 L34.7454545,2.8544286 C34.7454545,1.28431447 33.4692682,0 31.9090909,0 L14.8909091,0 C13.3307318,0 12.0545455,1.28431447 12.0545455,2.8544286 L12.0545455,5.58344075 L4.91825455,9.9100409 C4.06619318,10.4264249 3.54545455,11.3539358 3.54545455,12.3550374 L3.54545455,20.6946074 C3.54545455,21.9311994 3.89450455,23.0814449 4.49758636,24.055697 C3.47924318,25.0804369 2.12204318,26.4466378 0,28.5822856 L11.3454545,40 L12.5839705,38.7535959 C13.0994795,39.4815644 13.9401955,39.9620004 14.8909091,39.9620004 L31.9090909,39.9620004 C33.4692682,39.9620004 34.7454545,38.6773291 34.7454545,37.1075718 L34.7454545,34.2531432 L35.4545455,34.2531432 C37.4125227,34.2531432 39,32.6555552 39,30.6851075 C39,29.5122049 38.4300682,28.481221 37.5624955,27.8306789 C38.4301568,27.1801367 39,26.148796 39,24.9762503 C39,23.8033477 38.4300682,22.7723638 37.5624955,22.1218217 C38.4300682,21.4712795 39,20.4399388 39,19.2673931 Z M35.4545455,11.4177144 C36.6275591,11.4177144 37.5818182,12.3780512 37.5818182,13.5585359 C37.5818182,14.7390205 36.6275591,15.6993573 35.4545455,15.6993573 L31.2,15.6993573 C30.0269864,15.6993573 29.0727273,14.7390205 29.0727273,13.5585359 C29.0727273,12.3780512 30.0269864,11.4177144 31.2,11.4177144 L35.4545455,11.4177144 Z M12.9020864,10.4808374 C12.6102068,10.7100837 11.3415545,11.6905799 10.3718727,12.4418299 C10.0789295,12.6690245 10.0079318,13.0850575 10.2105545,13.3969038 L10.21605,13.4056455 C10.3240091,13.5725404 10.49685,13.6861823 10.6921159,13.7192759 C10.8873818,13.7523694 11.0875227,13.7015249 11.2439659,13.5795873 L12.0544568,12.9475097 L12.0544568,26.0000981 L12.0544568,37.1075718 C12.0544568,37.1573459 12.0666,37.2040872 12.0689932,37.2532369 L11.3453659,37.981473 L2.00575227,28.5822856 L4.76110227,25.8090298 L5.39751136,25.1685674 C6.39919091,26.1832276 7.72527955,26.8766753 9.21827045,27.0449082 L9.21827045,25.6176939 C6.81888409,25.2674912 4.963725,23.2048097 4.963725,20.6946074 L4.963725,12.3550374 C4.963725,11.8574748 5.22653182,11.3891701 5.65030227,11.1323607 L14.0064068,6.06637439 C14.4565023,6.75768131 14.6452091,7.46843403 14.5544455,8.14832325 C14.4199841,9.15254691 13.7337614,9.82610286 12.9020864,10.4808374 Z M33.3272727,37.1075718 C33.3272727,37.8943237 32.6912182,38.5347861 31.9090909,38.5347861 L14.8909091,38.5347861 C14.1087818,38.5347861 13.4727273,37.8943237 13.4727273,37.1075718 L13.4727273,11.8414187 L13.7386364,11.6341158 C16.2962386,9.88559985 16.7626432,7.05695031 14.7094705,4.63880328 C14.3258523,4.18691155 13.9137818,4.45620905 13.4727273,4.72354413 L13.4727273,2.8544286 C13.4727273,2.06731991 14.1087818,1.4272143 14.8909091,1.4272143 L31.9090909,1.4272143 C32.6912182,1.4272143 33.3272727,2.06731991 33.3272727,2.8544286 L33.3272727,9.9905001 L31.2,9.9905001 C30.3981068,9.9905001 29.6668568,10.2685393 29.0727273,10.7201634 L29.0727273,8.5632858 C27.23565,8.5632858 26.5916182,8.5632858 26.3921864,8.5632858 C26.329875,8.5632858 26.3083364,8.5632858 26.3083364,8.5632858 C26.2269682,8.5632858 26.0701705,8.5632858 25.7636659,8.5632858 L25.7636659,5.7088572 C21.7435636,5.7088572 23.2953205,5.7088572 21.0361568,5.7088572 L21.0361568,12.8449287 C19.179225,12.8449287 19.5798614,12.8449287 17.7271841,12.8449287 L17.7271841,21.4082145 C19.8541023,21.4082145 25.5424295,21.4082145 28.3953682,21.4082145 C28.5982568,21.67439 28.8243682,21.9211196 29.0919614,22.1218217 C28.4064477,22.6357972 27.9203659,23.3915072 27.7406114,24.2626431 L17.7272727,24.2626431 L17.7272727,25.6898574 L27.7407886,25.6898574 C27.8501659,26.2208703 28.0784045,26.7017524 28.3954568,27.1170717 L17.7272727,27.1170717 L17.7272727,28.544286 L28.3954568,28.544286 C28.0783159,28.9596054 27.8501659,29.4404874 27.7407886,29.9715003 L17.7272727,29.9715003 L17.7272727,31.3987146 L27.7258977,31.3987146 C28.0548273,33.0273445 29.4847977,34.2531432 31.2,34.2531432 L33.3272727,34.2531432 L33.3272727,37.1075718 Z M27.6545455,9.9905001 L27.6545455,19.9810002 L25.7637545,19.9810002 L25.7637545,9.9905001 C26.4465205,9.9905001 26.9689432,9.9905001 27.6545455,9.9905001 Z M24.3455727,7.1360715 L24.3455727,19.9810002 L22.4544273,19.9810002 L22.4544273,7.1360715 L24.3455727,7.1360715 Z M21.0362455,14.272143 L21.0362455,19.9810002 L19.1454545,19.9810002 L19.1454545,14.272143 L21.0362455,14.272143 Z M37.5818182,30.6851075 C37.5818182,31.8655921 36.6275591,32.8259289 35.4545455,32.8259289 L31.2,32.8259289 C30.0269864,32.8259289 29.0727273,31.8655921 29.0727273,30.6851075 C29.0727273,29.5046228 30.0269864,28.544286 31.2,28.544286 L35.4545455,28.544286 C36.6275591,28.544286 37.5818182,29.5046228 37.5818182,30.6851075 Z M37.5818182,24.9762503 C37.5818182,26.1567349 36.6275591,27.1170717 35.4545455,27.1170717 L31.2,27.1170717 C30.0269864,27.1170717 29.0727273,26.1567349 29.0727273,24.9762503 C29.0727273,23.7957656 30.0269864,22.8354288 31.2,22.8354288 L35.4545455,22.8354288 C36.6275591,22.8354288 37.5818182,23.7957656 37.5818182,24.9762503 Z M35.4545455,21.4082145 L31.2,21.4082145 C30.0269864,21.4082145 29.0727273,20.4478777 29.0727273,19.2673931 C29.0727273,18.0869084 30.0269864,17.1265716 31.2,17.1265716 L35.4545455,17.1265716 C36.6275591,17.1265716 37.5818182,18.0869084 37.5818182,19.2673931 C37.5818182,20.4478777 36.6275591,21.4082145 35.4545455,21.4082145 Z" id="Shape"></path>
                        </g>
                    </g>
                </g>
            </g>
        </g>
    </g>
</svg>