<?xml version="1.0" encoding="UTF-8"?>
<svg width="42px" height="42px" viewBox="0 0 42 42" version="1.1" xmlns="http://www.w3.org/2000/svg" xmlns:xlink="http://www.w3.org/1999/xlink">
    <!-- Generator: Sketch 51.2 (57519) - http://www.bohemiancoding.com/sketch -->
    <title>icon-progress</title>
    <desc>Created with Sketch.</desc>
    <defs></defs>
    <g id="Page-1" stroke="none" stroke-width="1" fill="none" fill-rule="evenodd">
        <g id="FH-Landingpage" transform="translate(-60.000000, -1704.000000)" fill="#8994A9" fill-rule="nonzero">
            <g id="HOW-IT-WORK" transform="translate(29.000000, 1150.000000)">
                <g id="feature2" transform="translate(0.000000, 537.000000)">
                    <g id="Group-2" transform="translate(31.000000, 17.000000)">
                        <g id="Group-3">
                            <g id="icon-progress">
                                <path d="M19,12.2149643 L19,6.78639286 L17.1726071,6.78639286 C17.0769286,6.51496429 16.9676786,6.24964286 16.8462143,5.99382143 L18.1368571,4.7025 L14.2988571,0.8645 L13.0082143,2.15514286 C12.7503571,2.03232143 12.4857143,1.92307143 12.2142857,1.82739286 L12.2142857,0 L6.78571429,0 L6.78571429,1.82739286 C6.51428571,1.92307143 6.24964286,2.03232143 5.99246429,2.15378571 L4.70182143,0.863142857 L0.863142857,4.70182143 L2.15378571,5.99314286 C2.03232143,6.24896429 1.92307143,6.51428571 1.82739286,6.78571429 L0,6.78571429 L0,12.2142857 L1.82739286,12.2142857 C1.92307143,12.4857143 2.03232143,12.7510357 2.15378571,13.0068571 L0.863142857,14.2981786 L4.70114286,18.1361786 L5.99178571,16.8455357 C6.24964286,16.9676786 6.51428571,17.0769286 6.78571429,17.1726071 L6.78571429,19 L12.2142857,19 L12.2142857,17.1726071 C12.4857143,17.0769286 12.7503571,16.9676786 13.0075357,16.8462143 L14.2981786,18.1368571 L18.1361786,14.2988571 L16.8455357,13.0075357 C16.9676786,12.7510357 17.0769286,12.4863929 17.1719286,12.2149643 L19,12.2149643 Z M16.2171786,14.2981786 L14.2981786,16.2171786 L13.2531786,15.1728571 L12.8053214,15.42325 C12.3540714,15.6756786 11.8648214,15.8772143 11.3504643,16.0231071 L10.8571429,16.1628929 L10.8571429,17.6428571 L8.14285714,17.6428571 L8.14285714,16.1628929 L7.64885714,16.0231071 C7.1345,15.8772143 6.64525,15.6756786 6.194,15.42325 L5.74614286,15.1728571 L4.70182143,16.2171786 L2.78282143,14.2981786 L3.82782143,13.2531786 L3.57742857,12.8053214 C3.325,12.3540714 3.12278571,11.8648214 2.97689286,11.3504643 L2.83710714,10.8571429 L1.35714286,10.8571429 L1.35714286,8.14285714 L2.83710714,8.14285714 L2.97689286,7.64953571 C3.12278571,7.13517857 3.325,6.64592857 3.57742857,6.19467857 L3.82782143,5.74682143 L2.78282143,4.70182143 L4.70182143,2.78282143 L5.74682143,3.82714286 L6.19467857,3.57675 C6.64592857,3.32432143 7.13517857,3.12278571 7.64953571,2.97689286 L8.14285714,2.83710714 L8.14285714,1.35714286 L10.8571429,1.35714286 L10.8571429,2.83710714 L11.3511429,2.97689286 C11.8655,3.12278571 12.35475,3.32432143 12.806,3.57675 L13.2538571,3.82714286 L14.2988571,2.78282143 L16.2178571,4.70182143 L15.1728571,5.74682143 L15.42325,6.19467857 C15.6756786,6.64592857 15.8778929,7.13517857 16.0237857,7.64953571 L16.1628929,8.14285714 L17.6428571,8.14285714 L17.6428571,10.8571429 L16.1628929,10.8571429 L16.0231071,11.3504643 C15.8772143,11.8648214 15.675,12.3540714 15.4225714,12.8053214 L15.1721786,13.2531786 L16.2171786,14.2981786 Z" id="Shape"></path>
                                <path d="M10,6 C7.794,6 6,7.794 6,10 C6,12.206 7.794,14 10,14 C12.206,14 14,12.206 14,10 C14,7.794 12.206,6 10,6 Z M10,12.6666667 C8.52933333,12.6666667 7.33333333,11.4706667 7.33333333,10 C7.33333333,8.52933333 8.52933333,7.33333333 10,7.33333333 C11.4706667,7.33333333 12.6666667,8.52933333 12.6666667,10 C12.6666667,11.4706667 11.4706667,12.6666667 10,12.6666667 Z" id="Shape"></path>
                                <path d="M31.084344,38.6965278 C30.5965331,36.9381944 29.2132794,35.6229167 27.4742742,35.2652778 L23.6950876,34.4861111 L23.6950876,34.3034722 C24.9415656,33.5576389 25.8700233,32.3131944 26.2257748,30.8354167 C27.468884,30.5895833 28.4114909,29.4631944 28.4114909,28.1111111 L28.4114909,24.9131944 C28.4114909,20.5493056 24.9678427,17 20.7338601,17 C19.0723386,17 17.5240108,17.8090278 16.5429989,19.1770833 C14.791192,19.7472222 13.5885091,21.4201389 13.5885091,23.3354167 L13.5885091,28.1111111 C13.5885091,29.4631944 14.531116,30.5895833 15.7742252,30.8361111 C16.1299767,32.3138889 17.0584344,33.5583333 18.3049124,34.3041667 L18.3049124,34.4868056 L14.5257258,35.2659722 C12.7867206,35.6243056 11.4034669,36.9388889 10.9163298,38.6972222 L10,42 L32,42 L31.084344,38.6965278 Z M26.3901752,29.3069444 L26.3901752,26.9159722 C26.7910695,27.1569444 27.0639471,27.6 27.0639471,28.1118056 C27.0639471,28.6236111 26.7910695,29.0659722 26.3901752,29.3069444 Z M15.6098248,29.30625 C15.2089305,29.0659722 14.9360529,28.6229167 14.9360529,28.1111111 C14.9360529,27.5993056 15.2089305,27.15625 15.6098248,26.9152778 L15.6098248,29.30625 Z M14.9360529,25.7194444 L14.9360529,23.3354167 C14.9360529,21.96875 15.8341909,20.7833333 17.1204214,20.4513889 L17.3737596,20.3861111 L17.5179468,20.1625 C18.2361877,19.0513889 19.4388705,18.3881944 20.7338601,18.3881944 C24.2239985,18.3888889 27.0639471,21.3159722 27.0639471,24.9131944 L27.0639471,25.7201389 C26.6657479,25.4805556 26.2096043,25.3333333 25.7164033,25.3333333 L25.2056842,25.3333333 C23.5421414,25.3333333 21.9789906,24.6659722 20.8025848,23.4534722 L20.3262281,22.9625 L19.2576259,24.0638889 C18.4632488,24.8826389 17.4067745,25.3333333 16.2835967,25.3333333 C15.7903957,25.3333333 15.3342521,25.4805556 14.9360529,25.7194444 Z M16.9573686,29.5 L16.9573686,26.6756944 C18.1856548,26.5236111 19.322308,25.9611111 20.2103393,25.0458333 L20.347115,24.9055556 C21.6656866,26.0458333 23.3063212,26.6770833 25.0426314,26.7152778 L25.0426314,29.5 C25.0426314,31.7979167 23.2295112,33.6666667 21,33.6666667 C18.7704888,33.6666667 16.9573686,31.7979167 16.9573686,29.5 Z M22.3475438,34.8729167 L22.3475438,35.0555556 C22.3475438,35.8215278 21.7431704,36.4444444 21,36.4444444 C20.2568296,36.4444444 19.6524562,35.8215278 19.6524562,35.0555556 L19.6524562,34.8729167 C20.084344,34.9881944 20.5337498,35.0555556 21,35.0555556 C21.4662502,35.0555556 21.915656,34.9881944 22.3475438,34.8729167 Z M26.9157173,40.6111111 L26.3692883,38.3597222 L25.0628445,38.6958333 L25.5277472,40.6111111 L16.4722528,40.6111111 L16.9364817,38.6958333 L15.630038,38.3597222 L15.0842827,40.6111111 L11.7868431,40.6111111 L12.2119931,39.0777778 C12.5603332,37.8222222 13.547409,36.8833333 14.7898444,36.6270833 L18.4255176,35.8777778 C18.7664462,37.0090278 19.7912532,37.8333333 21,37.8333333 C22.2087468,37.8333333 23.2335538,37.0090278 23.5744824,35.8777778 L27.2101556,36.6270833 C28.452591,36.8833333 29.4403406,37.8229167 29.7880069,39.0777778 L30.2131569,40.6111111 L26.9157173,40.6111111 Z" id="Shape"></path>
                                <path d="M32.5,0 C27.2614286,0 23,4.26142857 23,9.5 C23,14.7385714 27.2614286,19 32.5,19 C37.7385714,19 42,14.7385714 42,9.5 C42,4.26142857 37.7385714,0 32.5,0 Z M38.7116429,14.7528214 L37.2981786,13.3386786 L36.3386786,14.2981786 L37.7521429,15.7123214 C36.4954286,16.777 34.9136786,17.4643929 33.1778929,17.6089286 L33.1778929,15.6071429 L31.82075,15.6071429 L31.82075,17.60825 C30.0849643,17.4637143 28.5032143,16.7763214 27.2465,15.7116429 L28.6599643,14.2975 L27.7004643,13.338 L26.287,14.7521429 C25.2223214,13.4954286 24.5349286,11.9136786 24.3903929,10.1778929 L26.3928571,10.1778929 L26.3928571,8.82075 L24.39175,8.82075 C24.5362857,7.08496429 25.2236786,5.50389286 26.2883571,4.2465 L27.7018214,5.66064286 L28.6613214,4.70114286 L27.2478571,3.287 C28.5038929,2.22367857 30.0856429,1.53560714 31.8214286,1.39175 L31.8214286,3.39285714 L33.1785714,3.39285714 L33.1785714,1.39175 C34.9143571,1.53628571 36.4961071,2.22367857 37.7528214,3.28835714 L36.3393571,4.7025 L37.2988571,5.662 L38.7123214,4.24785714 C39.777,5.50457143 40.4643929,7.08632143 40.6089286,8.82210714 L38.6071429,8.82210714 L38.6071429,10.17925 L40.6081652,10.17925 C40.4635446,11.9147813 39.7761518,13.4955982 38.7116429,14.7528214 Z" id="Shape"></path>
                                <polygon id="Shape" points="33.6185595 9.5702608 33.6185595 6 32 6 32 10.2148696 33.8556784 12 35 10.8991826"></polygon>
                                <path d="M34.9283801,20 L34.9283801,35.1736111 C34.9283801,35.7930903 34.6883372,36.3848611 34.2859439,36.7569444 L33,37.9444444 L33.6424361,39 L34.9289159,37.8125 C35.59975,37.1930208 36,36.2054167 36,35.1736111 L36,20 L34.9283801,20 Z" id="Shape"></path>
                                <path d="M7.71459189,36.7569444 C7.3116628,36.3848611 7.07161993,35.7930903 7.07161993,35.1736111 L7.07161993,20 L6,20 L6,35.1736111 C6,36.2054167 6.40025004,37.1930208 7.07161993,37.8125 L8.35756385,39 L9,37.9444444 L7.71459189,36.7569444 Z" id="Shape"></path>
                                <rect id="Rectangle-path" x="8" y="28" width="1" height="8"></rect>
                                <rect id="Rectangle-path" x="32" y="28" width="1" height="8"></rect>
                                <rect id="Rectangle-path" x="32" y="25" width="1" height="1"></rect>
                                <rect id="Rectangle-path" x="8" y="25" width="1" height="1"></rect>
                            </g>
                        </g>
                    </g>
                </g>
            </g>
        </g>
    </g>
</svg>