<svg xmlns="http://www.w3.org/2000/svg" width="34" height="42" viewBox="0 0 34 42">
    <g fill="#8994A9" fill-rule="nonzero">
        <path d="M1.779 22.278a.833.833 0 0 0-1.19-.053c-.098.09-.199.182-.303.275A.866.866 0 0 0 .21 23.71a.835.835 0 0 0 1.19.078c.112-.1.222-.2.328-.3a.866.866 0 0 0 .052-1.21zM2.318 21.846a.67.67 0 0 0 .423.154.716.716 0 0 0 .61-.368c1.22-2.032 1.404-4.04 1.647-7.707.031-.473-.274-.886-.683-.922-.41-.037-.764.317-.796.79-.229 3.454-.383 5.189-1.386 6.858-.234.389-.151.924.185 1.195zM29.14 12.065c.094.555.484.935.919.935a.76.76 0 0 0 .196-.026c.508-.136.833-.763.724-1.4a21.931 21.931 0 0 0-.127-.684c-.128-.632-.64-1.014-1.143-.853-.503.16-.808.803-.68 1.434.04.196.077.396.11.594zM33.715 22.553c-2.31-1.992-2.818-3.932-3.14-7.805-.037-.45-.42-.784-.853-.745-.435.039-.756.435-.719.885.348 4.183.99 6.584 3.703 8.923a.77.77 0 0 0 1.112-.106.839.839 0 0 0-.103-1.152z"/>
        <path d="M32.51 25.777a.824.824 0 0 0-.038-.068c-.208-.377-.474-.665-.793-.852-2.324-1.363-3.73-5.071-4.18-11.021-.335-4.414-3.432-8.03-7.461-9.121a3.079 3.079 0 0 0 .477-1.651C20.515 1.374 19.163 0 17.5 0s-3.015 1.374-3.015 3.064c0 .607.176 1.174.477 1.65-4.03 1.091-7.127 4.708-7.46 9.122-.45 5.95-1.857 9.658-4.18 11.02-.674.395-1.111 1.233-1.266 2.425-.1.773-.13 2.396.47 3.006.161.164.38.256.609.256h9.19C12.735 33.068 14.9 35 17.5 35c2.6 0 4.764-1.932 5.176-4.457h9.19a.854.854 0 0 0 .608-.256c.6-.61.57-2.234.47-3.008-.077-.591-.224-1.095-.435-1.502zM17.5 1.75c.713 0 1.293.59 1.293 1.314 0 .724-.58 1.313-1.293 1.313s-1.293-.589-1.293-1.313c0-.725.58-1.314 1.293-1.314zm0 31.5c-1.647 0-3.033-1.153-3.419-2.707h6.837c-.385 1.554-1.771 2.707-3.418 2.707zm13.744-4.457H3.756a5.254 5.254 0 0 1-.006-1.168c.083-.782.304-1.177.432-1.253 2.886-1.692 4.534-5.749 5.037-12.402.332-4.398 3.97-7.843 8.28-7.843 4.312 0 7.95 3.445 8.282 7.843.242 3.2.75 5.799 1.532 7.823h-3.238a.868.868 0 0 0-.861.875c0 .484.386.875.861.875h4.063c.39.677.825 1.26 1.308 1.75h-8.588a.868.868 0 0 0-.86.875c0 .484.385.875.86.875h10.29c.042.164.077.356.101.582.05.467.03.882-.005 1.168zM26.136 40H8.864C8.387 40 8 40.448 8 41s.387 1 .864 1h17.272c.477 0 .864-.448.864-1s-.387-1-.864-1z"/>
        <path d="M17.846 26h-.692c-.637 0-1.154.448-1.154 1s.517 1 1.154 1h.692c.637 0 1.154-.448 1.154-1s-.517-1-1.154-1z"/>
    </g>
</svg>
