<?xml version="1.0" encoding="UTF-8"?>
<svg width="36px" height="36px" viewBox="0 0 36 36" version="1.1" xmlns="http://www.w3.org/2000/svg" xmlns:xlink="http://www.w3.org/1999/xlink">
    <!-- Generator: Sketch 51.2 (57519) - http://www.bohemiancoding.com/sketch -->
    <title>icon-log</title>
    <desc>Created with Sketch.</desc>
    <defs></defs>
    <g id="Page-1" stroke="none" stroke-width="1" fill="none" fill-rule="evenodd">
        <g id="FH-Landingpage" transform="translate(-63.000000, -1423.000000)" fill="#8994A9" fill-rule="nonzero">
            <g id="HOW-IT-WORK" transform="translate(29.000000, 1150.000000)">
                <g id="feature1" transform="translate(0.000000, 247.000000)">
                    <g id="Group-2" transform="translate(34.000000, 26.000000)">
                        <g id="icon-log">
                            <path d="M34.2,0 L1.8,0 C0.805851562,0 0,0.805856284 0,1.80001055 L0,28.8001688 C0,29.7942527 0.805851562,30.6001793 1.8,30.6001793 L10.8047812,30.6001793 C12.5754609,33.9236597 16.0342734,36 19.8,36 C23.5656562,36 27.0245391,33.9236597 28.7952187,30.6001793 L34.2,30.6001793 C35.1940781,30.6001793 36,29.794323 36,28.8001688 L36,1.80001055 C36,0.805856284 35.1941484,0 34.2,0 Z M3.6,29.4001488 L1.8,29.4001488 C1.46861719,29.4001488 1.20002344,29.1315535 1.20002344,28.8001688 L1.20002344,4.79998125 L3.6,4.79998125 L3.6,29.4001488 Z M3.6,3.60002109 L1.20002344,3.60002109 L1.20002344,1.80001055 C1.20002344,1.46862579 1.46861719,1.20003047 1.8,1.20003047 L3.6,1.20003047 L3.6,3.60002109 Z M19.8,34.8001805 C14.8294688,34.8001805 10.8,30.7706881 10.8,25.8001277 C10.8,20.8295674 14.8294688,16.800075 19.8,16.800075 C24.7705313,16.800075 28.8,20.8295674 28.8,25.8001277 C28.794375,30.7683678 24.7682109,34.7945554 19.8,34.8001805 Z M16.7999766,15.6000445 L16.7999766,13.2000539 L22.7999531,13.2000539 L22.7999531,15.6000445 L16.7999766,15.6000445 Z M34.7999766,28.8001688 C34.7999766,29.1315535 34.5313828,29.4001488 34.2,29.4001488 L29.3316328,29.4001488 C31.2973594,24.252189 28.8007031,18.4756317 23.7042422,16.380096 C23.8938047,16.164376 23.9989219,15.8872728 24.0000469,15.6001148 L24.0000469,13.2001242 C24.0000469,12.5373547 23.4627891,12.0000938 22.8000234,12.0000938 L16.8000469,12.0000938 C16.1372813,12.0000938 15.6000234,12.5373547 15.6000234,13.2001242 L15.6000234,15.6001148 C15.6011484,15.8873431 15.7061953,16.164376 15.8958281,16.380096 C10.7993672,18.475702 8.30271094,24.252189 10.2684375,29.4001488 L4.80002344,29.4001488 L4.80002344,4.79998125 L34.8000469,4.79998125 L34.8000469,28.8001688 L34.7999766,28.8001688 Z M34.7999766,3.60002109 L4.80002344,3.60002109 L4.80002344,1.19996016 L34.2,1.19996016 C34.5313828,1.19996016 34.7999766,1.46855548 34.7999766,1.79994023 L34.7999766,3.60002109 Z" id="Shape"></path>
                            <path d="M6.28573581,11 L12.7142642,11 C13.4243682,11 14,10.4403592 14,9.74998169 L14,7.25001831 C14,6.55964082 13.4243682,6 12.7142642,6 L6.28573581,6 C5.57563176,6 5,6.55964082 5,7.25001831 L5,9.74998169 C5,10.4403592 5.57563176,11 6.28573581,11 Z M6.28573581,7.25001831 L12.7142642,7.25001831 L12.7142642,9.74998169 L6.28573581,9.74998169 L6.28573581,7.25001831 Z" id="Shape"></path>
                            <path d="M17.2857358,11 L23.7142642,11 C24.4243682,11 25,10.4403592 25,9.74998169 L25,7.25001831 C25,6.55964082 24.4243682,6 23.7142642,6 L17.2857358,6 C16.5756318,6 16,6.55964082 16,7.25001831 L16,9.74998169 C16.0000753,10.4403592 16.5757071,11 17.2857358,11 Z M17.2857358,7.25001831 L23.7142642,7.25001831 L23.7142642,9.74998169 L17.2857358,9.74998169 L17.2857358,7.25001831 Z" id="Shape"></path>
                            <path d="M26.2857358,11 L32.7142642,11 C33.4243682,11 34,10.4403592 34,9.74998169 L34,7.25001831 C34,6.55964082 33.4243682,6 32.7142642,6 L26.2857358,6 C25.5756318,6 25,6.55964082 25,7.25001831 L25,9.74998169 C25,10.4403592 25.5756318,11 26.2857358,11 Z M26.2857358,7.25001831 L32.7142642,7.25001831 L32.7142642,9.74998169 L26.2857358,9.74998169 L26.2857358,7.25001831 Z" id="Shape"></path>
                            <path d="M6.28573581,17 L12.7142642,17 C13.4243682,17 14,16.4403592 14,15.7499817 L14,13.2500183 C14,12.5596408 13.4243682,12 12.7142642,12 L6.28573581,12 C5.57563176,12 5,12.5596408 5,13.2500183 L5,15.7499817 C5,16.4403592 5.57563176,17 6.28573581,17 Z M6.28573581,13.2500183 L12.7142642,13.2500183 L12.7142642,15.7499817 L6.28573581,15.7499817 L6.28573581,13.2500183 Z" id="Shape"></path>
                            <path d="M26.2857358,17 L32.7142642,17 C33.4243682,17 34,16.4403592 34,15.7499817 L34,13.2500183 C34,12.5596408 33.4243682,12 32.7142642,12 L26.2857358,12 C25.5756318,12 25,12.5596408 25,13.2500183 L25,15.7499817 C25,16.4403592 25.5756318,17 26.2857358,17 Z M26.2857358,13.2500183 L32.7142642,13.2500183 L32.7142642,15.7499817 L26.2857358,15.7499817 L26.2857358,13.2500183 Z" id="Shape"></path>
                            <path d="M6.11113281,23 L7.22226562,23 C7.52910156,23 7.77779948,22.720208 7.77779948,22.3750092 C7.77779948,22.0298103 7.52910156,21.7500183 7.22226562,21.7500183 L6.11113281,21.7500183 L6.11113281,19.2499817 L9.44446615,19.2499817 C9.75130208,19.2499817 10,18.9701897 10,18.6249908 C10,18.279792 9.75123698,18 9.44446615,18 L6.11113281,18 C5.49746094,18 5,18.5596572 5,19.2500549 L5,21.7500916 C5,22.4403428 5.49746094,23 6.11113281,23 Z" id="Shape"></path>
                            <path d="M31.8888672,18 L28.5555339,18 C28.2486979,18 28,18.279792 28,18.6249908 C28,18.9701897 28.2486979,19.2499817 28.5555339,19.2499817 L31.8888672,19.2499817 L31.8888672,21.7500183 L30.7777344,21.7500183 C30.4708984,21.7500183 30.2222005,22.0298103 30.2222005,22.3750092 C30.2222005,22.720208 30.4708984,23 30.7777344,23 L31.8888672,23 C32.5025391,23 33,22.4403428 33,21.7499451 L33,19.2499084 C33,18.5596572 32.5025391,18 31.8888672,18 Z" id="Shape"></path>
                            <path d="M20.4999561,24.8571142 L19.9999707,24.8571142 L19.9999707,22.5714094 C19.9999707,22.255805 19.7761404,22 19.4999854,22 C19.2238303,22 19,22.255805 19,22.5714094 L19,25.4285906 C19,25.744195 19.2238303,26 19.4999854,26 L20.5000146,26 C20.7761697,26 21,25.744195 21,25.4285906 C21,25.1129861 20.7761111,24.8571142 20.4999561,24.8571142 Z" id="Shape"></path>
                            <path d="M24.0214723,19.0904563 C24.0128906,19.0855525 24.0085637,19.0768986 23.9999099,19.0719948 C23.991256,19.0670909 23.9845493,19.0676679 23.9771214,19.06399 C21.5156107,17.6453367 18.484822,17.6453367 16.0233113,19.06399 C16.0159555,19.0676679 16.0073017,19.0676679 15.9999459,19.0719948 C15.9925902,19.0763217 15.9863882,19.0855525 15.9778065,19.0911054 C14.7774478,19.7818984 13.7812473,20.7780999 13.0904551,21.97846 C13.0855513,21.9870418 13.0768974,21.9913687 13.0719936,22.0000225 C13.0670897,22.0086764 13.0676667,22.0153831 13.0639888,22.022811 C11.6453371,24.4843245 11.6453371,27.5151166 13.0639888,29.9766301 C13.0676667,29.9839859 13.0676667,29.9926397 13.0719936,29.9999955 C13.0805032,30.0123993 13.0898061,30.0242984 13.0996858,30.0356926 C13.7896848,31.2302835 14.7827122,32.2215812 15.9784556,32.9095617 C15.9871094,32.9144656 15.9913642,32.9231194 16.000018,32.9280232 C16.0085997,32.9329271 16.0215805,32.936028 16.0320372,32.9415809 C18.4887162,34.3528064 21.5101299,34.3528064 23.9668089,32.9415809 C23.978131,32.9376867 23.9892368,32.9332155 24.0000541,32.9280232 C24.0086358,32.9231194 24.0136118,32.9144656 24.0221935,32.9089127 C25.2179369,32.2210043 26.2109642,31.2296345 26.9009632,30.0350436 C26.9095449,30.0227118 26.9206507,30.0129041 26.9280064,29.9999955 C26.9353622,29.9870868 26.9323333,29.9846349 26.9360112,29.977207 C28.3546629,27.5156935 28.3546629,24.4849014 26.9360112,22.0233879 C26.9323333,22.0160321 26.9323333,22.0073783 26.9280064,22.0000225 C26.9236795,21.9926668 26.9144487,21.9864648 26.9088959,21.9778831 C26.2180315,20.7774509 25.2219032,19.7812493 24.0214723,19.0904563 Z M26.7390644,25.3846126 L26.1538489,25.3846126 C25.8139696,25.3846126 25.5384893,25.6600933 25.5384893,25.999973 C25.5384893,26.3398526 25.8139696,26.6153333 26.1538489,26.6153333 L26.7390644,26.6153333 C26.6693289,27.3842994 26.4674061,28.1353808 26.1421663,28.8356209 L25.6369266,28.5439143 C25.3428405,28.3767509 24.9689949,28.4782172 24.7998125,28.7711498 C24.6307022,29.0640824 24.7297165,29.4386495 25.0214949,29.6097072 L25.5260854,29.9014138 C25.3052685,30.21663 25.0582015,30.5126636 24.787625,30.7863414 C24.5136591,31.0577114 24.2169768,31.3052113 23.9008235,31.5260286 L23.6097662,31.0214374 C23.5006558,30.8294663 23.2970023,30.7106923 23.0761853,30.7101875 C22.8553683,30.7096827 22.65121,30.8275913 22.5412342,31.0190576 C22.4312584,31.2105239 22.432268,31.446269 22.5439745,31.6367978 L22.8356808,32.142038 C22.1354415,32.4672782 21.3842888,32.6692733 20.6153957,32.7389368 L20.6153957,32.1537206 C20.6153957,31.813841 20.3399154,31.5383603 20.0000361,31.5383603 C19.6601568,31.5383603 19.3846764,31.8139131 19.3846764,32.1537206 L19.3846764,32.7389368 C18.6157112,32.6692012 17.8646306,32.4672782 17.1643913,32.142038 L17.4560976,31.6367978 C17.6232608,31.3427113 17.5217946,30.9688653 17.2288623,30.7996827 C16.9359301,30.6305722 16.5613633,30.7295866 16.3903059,31.0213653 L16.0985996,31.5259565 C15.7833837,31.3051392 15.4873505,31.058072 15.2136731,30.7874952 C14.9428081,30.5138895 14.6957411,30.2175675 14.4752126,29.9019907 L14.9798032,29.6109331 C15.2716537,29.4398755 15.370668,29.0653083 15.2014856,28.7723758 C15.0323753,28.4794432 14.6584575,28.3779048 14.3643714,28.5451403 L13.8591318,28.8368469 C13.533315,28.1363183 13.3309595,27.3847321 13.2610077,26.6153333 L13.8462232,26.6153333 C14.1861025,26.6153333 14.4615828,26.3398526 14.4615828,25.999973 C14.4615828,25.6600933 14.1861025,25.3846126 13.8462232,25.3846126 L13.2610077,25.3846126 C13.3307432,24.6156466 13.532666,23.8645651 13.8579059,23.164325 L14.3631455,23.4560316 C14.553674,23.5677383 14.7894189,23.5687479 14.9808849,23.458772 C15.172351,23.3487961 15.2902595,23.1446375 15.2897547,22.9238203 C15.2892499,22.703003 15.170476,22.4993493 14.9785051,22.3902387 L14.4739146,22.0985321 C14.6947315,21.7833159 14.9417985,21.4872823 15.212375,21.2136046 C15.4859803,20.9427393 15.782302,20.6956721 16.0978785,20.4751433 L16.3889357,20.9797345 C16.5599931,21.2715853 16.9345599,21.3705997 17.2274921,21.2014171 C17.5204244,21.0322344 17.6219627,20.6583884 17.4547274,20.364302 L17.1630211,19.8590618 C17.8635489,19.5332446 18.6151343,19.3308889 19.3845322,19.260937 L19.3845322,19.8461532 C19.3845322,20.1860328 19.6600125,20.4615135 19.9998918,20.4615135 C20.3397711,20.4615135 20.6152515,20.1860328 20.6152515,19.8461532 L20.6152515,19.260937 C21.3842167,19.3306726 22.1352973,19.5325956 22.8355366,19.8578358 L22.5438303,20.363076 C22.4321237,20.5536048 22.4311141,20.7893499 22.5410899,20.9808162 C22.6510657,21.1722825 22.8552241,21.2901911 23.0760411,21.2896863 C23.296858,21.2891815 23.5005116,21.1704075 23.609622,20.9784364 L23.9013283,20.4738452 C24.2165441,20.6946624 24.5125774,20.9417297 24.7862548,21.2123065 C25.0571198,21.4859122 25.3041867,21.7822342 25.5247153,22.097811 L25.0201247,22.3888685 C24.8281538,22.4979791 24.7093799,22.7016328 24.7088751,22.9224501 C24.7083703,23.1432673 24.8262788,23.3474259 25.0177449,23.4574018 C25.2092109,23.5673777 25.4449558,23.5663681 25.6354843,23.4546614 L26.1407239,23.1629548 C26.466685,23.8635555 26.6690405,24.6151417 26.7390644,25.3846126 Z" id="Shape"></path>
                        </g>
                    </g>
                </g>
            </g>
        </g>
    </g>
</svg>